<svg xmlns="http://www.w3.org/2000/svg" width="22" height="21" viewBox="1 1 22 21"><path d="M22 22h-4a1 1 0 0 1-1-1v-7a1 1 0 0 0-2 0v7a1 1 0 0 1-1 1h-4a1 1 0 0 1-1-1v-7c0-3.86 3.14-7 7-7 3.859 0 7 3.14 7 7v7a1 1 0 0 1-1 1zm-3-2h2v-6c0-2.757-2.243-5-5-5s-5 2.243-5 5v6h2v-6c0-1.654 1.346-3 3-3s3 1.346 3 3v6zM6 22H2a1 1 0 0 1-1-1V9a1 1 0 0 1 1-1h4a1 1 0 0 1 1 1v12a1 1 0 0 1-1 1zm-3-2h2V10H3v10zM4 7C2.346 7 1 5.654 1 4s1.346-3 3-3 3 1.346 3 3-1.346 3-3 3zm0-4c-.551 0-1 .449-1 1s.449 1 1 1 1-.449 1-1-.449-1-1-1z"/></svg>