<svg xmlns="http://www.w3.org/2000/svg" width="24" height="19.944" viewBox="0 1.99 24 19.944"><path d="M8.254 21.934h-.001c-2.638 0-5.313-.712-7.738-2.06a1 1 0 0 1-.477-1.145A.986.986 0 0 1 1.041 18a10.633 10.633 0 0 0 4.874-.966c-7.605-4.673-3.87-13.347-3.829-13.44a1 1 0 0 1 1.732-.169A9.667 9.667 0 0 0 11 7.506a5.464 5.464 0 0 1 1.883-4.171 5.474 5.474 0 0 1 7.249.051 9.928 9.928 0 0 0 2.292-1.202 1 1 0 0 1 1.548 1.054 8.71 8.71 0 0 1-1.995 3.773c.015.161.022.323.023.486 0 4.291-1.432 7.96-4.14 10.617-2.51 2.463-5.922 3.82-9.606 3.82zm-3.285-2.418a13.33 13.33 0 0 0 3.283.418h.001c3.157 0 6.071-1.153 8.206-3.248C18.775 14.414 20 11.238 20 7.5a3.43 3.43 0 0 0-.062-.641.999.999 0 0 1 .279-.901c.223-.22.429-.454.618-.701-.227.083-.456.16-.688.23a1.002 1.002 0 0 1-1.043-.301A3.48 3.48 0 0 0 13 7.517V8.53c0 .542-.432.985-.974 1l-.304.004a11.67 11.67 0 0 1-8.326-3.499c-.596 2.553-.833 7.454 5.01 10.051a1 1 0 0 1 .155 1.741 12.619 12.619 0 0 1-3.592 1.689z"/></svg>