<svg height="32" version="1.0" width="32" xmlns="http://www.w3.org/2000/svg"><circle clip-rule="evenodd" cx="16" cy="16" fill="#55ACEE" fill-rule="evenodd" r="16"/><path d="M26.013 9.896a8.268 8.268 0 01-2.359.636A4.047 4.047 0 0025.461 8.3a8.314 8.314 0 01-2.608.979 4.134 4.134 0 00-2.996-1.275c-2.269 0-4.105 1.807-4.105 4.039 0 .315.036.625.104.923a11.739 11.739 0 01-8.461-4.222 3.968 3.968 0 00-.559 2.031c0 1.4.728 2.636 1.828 3.363a4.153 4.153 0 01-1.858-.507l-.001.051c0 1.958 1.415 3.591 3.293 3.963a4.26 4.26 0 01-1.853.07c.521 1.603 2.038 2.771 3.834 2.806a8.323 8.323 0 01-6.078 1.672 11.761 11.761 0 006.295 1.814c7.552 0 11.682-6.156 11.682-11.495 0-.173-.006-.351-.014-.521a8.375 8.375 0 002.049-2.095z" fill="#FFF"/></svg>